<mxfile host="app.diagrams.net" agent="Mozilla/5.0 (Windows NT 10.0; Win64; x64) AppleWebKit/537.36 (KHTML, like Gecko) Chrome/138.0.0.0 Safari/537.36" version="28.0.7">
  <diagram name="Page-1" id="VxQtLswMTg9YEFT8QfHb">
    <mxGraphModel dx="1903" dy="1628" grid="1" gridSize="10" guides="1" tooltips="1" connect="1" arrows="1" fold="1" page="1" pageScale="1" pageWidth="800" pageHeight="550" math="0" shadow="0" adaptiveColors="auto">
      <root>
        <mxCell id="0" />
        <mxCell id="1" parent="0" />
        <mxCell id="ZzkSx8O1h9CKL1oApThb-25" value="" style="group" vertex="1" connectable="0" parent="1">
          <mxGeometry x="375" y="-495" width="370" height="120" as="geometry" />
        </mxCell>
        <mxCell id="ZzkSx8O1h9CKL1oApThb-27" value="" style="group" vertex="1" connectable="0" parent="ZzkSx8O1h9CKL1oApThb-25">
          <mxGeometry x="-30" y="-5" width="400" height="125" as="geometry" />
        </mxCell>
        <mxCell id="ZzkSx8O1h9CKL1oApThb-2" value="" style="rounded=0;whiteSpace=wrap;html=1;" vertex="1" parent="ZzkSx8O1h9CKL1oApThb-27">
          <mxGeometry x="30" y="5" width="370" height="120" as="geometry" />
        </mxCell>
        <mxCell id="ZzkSx8O1h9CKL1oApThb-8" value="" style="group" vertex="1" connectable="0" parent="ZzkSx8O1h9CKL1oApThb-27">
          <mxGeometry x="280" y="15" width="103" height="100" as="geometry" />
        </mxCell>
        <mxCell id="ZzkSx8O1h9CKL1oApThb-9" value="Lemmatization" style="rounded=0;whiteSpace=wrap;html=1;verticalAlign=top;" vertex="1" parent="ZzkSx8O1h9CKL1oApThb-8">
          <mxGeometry width="100" height="91.67" as="geometry" />
        </mxCell>
        <mxCell id="ZzkSx8O1h9CKL1oApThb-10" value="" style="group" vertex="1" connectable="0" parent="ZzkSx8O1h9CKL1oApThb-8">
          <mxGeometry x="12.875" y="25" width="77.25" height="54.16666666666666" as="geometry" />
        </mxCell>
        <mxCell id="ZzkSx8O1h9CKL1oApThb-11" value="" style="shape=cylinder3;whiteSpace=wrap;html=1;boundedLbl=1;backgroundOutline=1;size=15;" vertex="1" parent="ZzkSx8O1h9CKL1oApThb-10">
          <mxGeometry width="77.25" height="54.16666666666666" as="geometry" />
        </mxCell>
        <mxCell id="ZzkSx8O1h9CKL1oApThb-23" style="edgeStyle=orthogonalEdgeStyle;rounded=0;orthogonalLoop=1;jettySize=auto;html=1;exitX=1;exitY=0.5;exitDx=0;exitDy=0;" edge="1" parent="ZzkSx8O1h9CKL1oApThb-27" source="ZzkSx8O1h9CKL1oApThb-16">
          <mxGeometry relative="1" as="geometry">
            <mxPoint x="280" y="64.71428571428578" as="targetPoint" />
          </mxGeometry>
        </mxCell>
        <mxCell id="ZzkSx8O1h9CKL1oApThb-16" value="Filtering" style="rounded=0;whiteSpace=wrap;html=1;" vertex="1" parent="ZzkSx8O1h9CKL1oApThb-27">
          <mxGeometry x="157.5" y="45" width="85" height="40" as="geometry" />
        </mxCell>
        <mxCell id="ZzkSx8O1h9CKL1oApThb-21" style="edgeStyle=orthogonalEdgeStyle;rounded=0;orthogonalLoop=1;jettySize=auto;html=1;exitX=1;exitY=0.5;exitDx=0;exitDy=0;entryX=0;entryY=0.5;entryDx=0;entryDy=0;" edge="1" parent="ZzkSx8O1h9CKL1oApThb-27" source="ZzkSx8O1h9CKL1oApThb-18" target="ZzkSx8O1h9CKL1oApThb-16">
          <mxGeometry relative="1" as="geometry" />
        </mxCell>
        <mxCell id="ZzkSx8O1h9CKL1oApThb-18" value="Cleaning" style="rounded=0;whiteSpace=wrap;html=1;" vertex="1" parent="ZzkSx8O1h9CKL1oApThb-27">
          <mxGeometry x="50" y="40" width="70" height="50" as="geometry" />
        </mxCell>
        <mxCell id="gc1IaPbojfnXmt3LPGag-13" value="&lt;span style=&quot;font-size: 12px;&quot;&gt;Text Preprocessing&lt;/span&gt;" style="text;html=1;align=center;verticalAlign=middle;whiteSpace=wrap;rounded=0;strokeColor=none;fontSize=14;" parent="ZzkSx8O1h9CKL1oApThb-27" vertex="1">
          <mxGeometry width="180" height="40" as="geometry" />
        </mxCell>
        <mxCell id="gc1IaPbojfnXmt3LPGag-6" value="" style="group" parent="1" vertex="1" connectable="0">
          <mxGeometry x="110" y="-505" width="210" height="140" as="geometry" />
        </mxCell>
        <mxCell id="gc1IaPbojfnXmt3LPGag-74" value="Article text" style="shape=document;whiteSpace=wrap;html=1;boundedLbl=1;" parent="gc1IaPbojfnXmt3LPGag-6" vertex="1">
          <mxGeometry x="20" y="90" width="75" height="20" as="geometry" />
        </mxCell>
        <mxCell id="ZzkSx8O1h9CKL1oApThb-14" value="" style="group" vertex="1" connectable="0" parent="gc1IaPbojfnXmt3LPGag-6">
          <mxGeometry x="-80" y="10" width="240" height="120" as="geometry" />
        </mxCell>
        <mxCell id="ZzkSx8O1h9CKL1oApThb-13" value="" style="shape=parallelogram;perimeter=parallelogramPerimeter;whiteSpace=wrap;html=1;fixedSize=1;" vertex="1" parent="ZzkSx8O1h9CKL1oApThb-14">
          <mxGeometry width="240" height="120" as="geometry" />
        </mxCell>
        <mxCell id="gc1IaPbojfnXmt3LPGag-1" value="ISOT Fake News dataset" style="shape=cylinder3;whiteSpace=wrap;html=1;boundedLbl=1;backgroundOutline=1;size=15;verticalAlign=top;" parent="ZzkSx8O1h9CKL1oApThb-14" vertex="1">
          <mxGeometry x="60" y="10" width="120" height="100" as="geometry" />
        </mxCell>
        <mxCell id="gc1IaPbojfnXmt3LPGag-73" value="" style="group" parent="1" vertex="1" connectable="0">
          <mxGeometry x="375" y="-135" width="255" height="90" as="geometry" />
        </mxCell>
        <mxCell id="gc1IaPbojfnXmt3LPGag-69" value="" style="text;html=1;align=center;verticalAlign=middle;whiteSpace=wrap;rounded=0;strokeColor=default;" parent="gc1IaPbojfnXmt3LPGag-73" vertex="1">
          <mxGeometry width="255" height="90" as="geometry" />
        </mxCell>
        <mxCell id="gc1IaPbojfnXmt3LPGag-70" value="Fake news" style="ellipse;shape=cloud;whiteSpace=wrap;html=1;" parent="gc1IaPbojfnXmt3LPGag-73" vertex="1">
          <mxGeometry x="125" width="120" height="80" as="geometry" />
        </mxCell>
        <mxCell id="gc1IaPbojfnXmt3LPGag-71" value="Real News" style="ellipse;shape=cloud;whiteSpace=wrap;html=1;" parent="gc1IaPbojfnXmt3LPGag-73" vertex="1">
          <mxGeometry x="5" width="120" height="80" as="geometry" />
        </mxCell>
        <mxCell id="gc1IaPbojfnXmt3LPGag-83" style="edgeStyle=orthogonalEdgeStyle;rounded=0;orthogonalLoop=1;jettySize=auto;html=1;exitX=0.5;exitY=1;exitDx=0;exitDy=0;entryX=0.001;entryY=0.566;entryDx=0;entryDy=0;entryPerimeter=0;" parent="1" source="gc1IaPbojfnXmt3LPGag-81" target="gc1IaPbojfnXmt3LPGag-69" edge="1">
          <mxGeometry relative="1" as="geometry" />
        </mxCell>
        <mxCell id="gc1IaPbojfnXmt3LPGag-81" value="Classifiers" style="rounded=0;whiteSpace=wrap;html=1;" parent="1" vertex="1">
          <mxGeometry x="197.5" y="-175" width="150" height="50" as="geometry" />
        </mxCell>
        <mxCell id="ZzkSx8O1h9CKL1oApThb-7" value="" style="endArrow=classic;html=1;rounded=0;exitX=1;exitY=0.5;exitDx=0;exitDy=0;" edge="1" parent="1" source="ZzkSx8O1h9CKL1oApThb-13" target="ZzkSx8O1h9CKL1oApThb-2">
          <mxGeometry width="50" height="50" relative="1" as="geometry">
            <mxPoint x="440" y="-245" as="sourcePoint" />
            <mxPoint x="490" y="-295" as="targetPoint" />
          </mxGeometry>
        </mxCell>
        <mxCell id="ZzkSx8O1h9CKL1oApThb-28" style="edgeStyle=orthogonalEdgeStyle;rounded=0;orthogonalLoop=1;jettySize=auto;html=1;" edge="1" parent="1" source="ZzkSx8O1h9CKL1oApThb-2" target="gc1IaPbojfnXmt3LPGag-61">
          <mxGeometry relative="1" as="geometry" />
        </mxCell>
        <mxCell id="ZzkSx8O1h9CKL1oApThb-36" style="edgeStyle=orthogonalEdgeStyle;rounded=0;orthogonalLoop=1;jettySize=auto;html=1;" edge="1" parent="1" source="gc1IaPbojfnXmt3LPGag-66" target="gc1IaPbojfnXmt3LPGag-81">
          <mxGeometry relative="1" as="geometry" />
        </mxCell>
        <mxCell id="gc1IaPbojfnXmt3LPGag-66" value="Text,&lt;div&gt;&amp;nbsp;Emotion &amp;amp; Sentiment&lt;/div&gt;&lt;div&gt;Features&lt;/div&gt;" style="shape=cylinder3;whiteSpace=wrap;html=1;boundedLbl=1;backgroundOutline=1;size=15;" parent="1" vertex="1">
          <mxGeometry x="200" y="-311.25" width="145" height="106.25" as="geometry" />
        </mxCell>
        <mxCell id="ZzkSx8O1h9CKL1oApThb-35" value="" style="group" vertex="1" connectable="0" parent="1">
          <mxGeometry x="375" y="-345" width="380" height="140" as="geometry" />
        </mxCell>
        <mxCell id="gc1IaPbojfnXmt3LPGag-61" value="" style="text;html=1;align=center;verticalAlign=middle;whiteSpace=wrap;rounded=0;strokeColor=default;" parent="ZzkSx8O1h9CKL1oApThb-35" vertex="1">
          <mxGeometry x="40" width="290" height="140" as="geometry" />
        </mxCell>
        <mxCell id="ZzkSx8O1h9CKL1oApThb-29" value="TF IDF Vectorizer" style="rounded=0;whiteSpace=wrap;html=1;" vertex="1" parent="ZzkSx8O1h9CKL1oApThb-35">
          <mxGeometry x="130" y="20" width="105" height="50" as="geometry" />
        </mxCell>
        <mxCell id="ZzkSx8O1h9CKL1oApThb-30" value="Sentiment and Emotion Extraction&lt;div&gt;(TextBlob &amp;amp; NRCLex)&lt;/div&gt;" style="rounded=0;whiteSpace=wrap;html=1;" vertex="1" parent="ZzkSx8O1h9CKL1oApThb-35">
          <mxGeometry x="122.5" y="80" width="120" height="50" as="geometry" />
        </mxCell>
        <mxCell id="ZzkSx8O1h9CKL1oApThb-34" value="Feature Extraction" style="text;html=1;align=center;verticalAlign=middle;whiteSpace=wrap;rounded=0;" vertex="1" parent="ZzkSx8O1h9CKL1oApThb-35">
          <mxGeometry x="215" width="110" height="30" as="geometry" />
        </mxCell>
        <mxCell id="ZzkSx8O1h9CKL1oApThb-37" value="" style="endArrow=classic;html=1;rounded=0;" edge="1" parent="1" source="ZzkSx8O1h9CKL1oApThb-30" target="gc1IaPbojfnXmt3LPGag-66">
          <mxGeometry width="50" height="50" relative="1" as="geometry">
            <mxPoint x="560" y="-155" as="sourcePoint" />
            <mxPoint x="610" y="-205" as="targetPoint" />
          </mxGeometry>
        </mxCell>
        <mxCell id="ZzkSx8O1h9CKL1oApThb-40" value="" style="endArrow=classic;html=1;rounded=0;" edge="1" parent="1" source="ZzkSx8O1h9CKL1oApThb-29" target="gc1IaPbojfnXmt3LPGag-66">
          <mxGeometry width="50" height="50" relative="1" as="geometry">
            <mxPoint x="560" y="-155" as="sourcePoint" />
            <mxPoint x="610" y="-205" as="targetPoint" />
          </mxGeometry>
        </mxCell>
      </root>
    </mxGraphModel>
  </diagram>
</mxfile>
